<mxfile host="app.diagrams.net" agent="Mozilla/5.0 (Windows NT 10.0; Win64; x64) AppleWebKit/537.36 (KHTML, like Gecko) Chrome/123.0.0.0 Safari/537.36" version="28.0.7">
  <diagram name="Page-1" id="WyNRh-yo47AWvge_DOEv">
    <mxGraphModel dx="2505" dy="884" grid="1" gridSize="10" guides="1" tooltips="1" connect="1" arrows="1" fold="1" page="1" pageScale="1" pageWidth="827" pageHeight="1169" math="0" shadow="0">
      <root>
        <mxCell id="0" />
        <mxCell id="1" parent="0" />
        <mxCell id="GNe4mvPUVCvpiyLvqnW--13" style="edgeStyle=orthogonalEdgeStyle;rounded=0;orthogonalLoop=1;jettySize=auto;html=1;exitX=0;exitY=0.5;exitDx=0;exitDy=0;entryX=0.5;entryY=0;entryDx=0;entryDy=0;" edge="1" parent="1" source="GNe4mvPUVCvpiyLvqnW--1" target="GNe4mvPUVCvpiyLvqnW--18">
          <mxGeometry relative="1" as="geometry" />
        </mxCell>
        <mxCell id="GNe4mvPUVCvpiyLvqnW--14" style="edgeStyle=orthogonalEdgeStyle;rounded=0;orthogonalLoop=1;jettySize=auto;html=1;exitX=0.25;exitY=1;exitDx=0;exitDy=0;entryX=0.75;entryY=0;entryDx=0;entryDy=0;" edge="1" parent="1" source="GNe4mvPUVCvpiyLvqnW--1" target="GNe4mvPUVCvpiyLvqnW--4">
          <mxGeometry relative="1" as="geometry" />
        </mxCell>
        <mxCell id="GNe4mvPUVCvpiyLvqnW--16" style="edgeStyle=orthogonalEdgeStyle;rounded=0;orthogonalLoop=1;jettySize=auto;html=1;exitX=0.75;exitY=1;exitDx=0;exitDy=0;entryX=0.25;entryY=0;entryDx=0;entryDy=0;" edge="1" parent="1" source="GNe4mvPUVCvpiyLvqnW--1" target="GNe4mvPUVCvpiyLvqnW--5">
          <mxGeometry relative="1" as="geometry" />
        </mxCell>
        <mxCell id="GNe4mvPUVCvpiyLvqnW--53" style="edgeStyle=orthogonalEdgeStyle;rounded=0;orthogonalLoop=1;jettySize=auto;html=1;exitX=0;exitY=0.75;exitDx=0;exitDy=0;entryX=0.5;entryY=0;entryDx=0;entryDy=0;" edge="1" parent="1" source="GNe4mvPUVCvpiyLvqnW--1" target="GNe4mvPUVCvpiyLvqnW--3">
          <mxGeometry relative="1" as="geometry" />
        </mxCell>
        <mxCell id="GNe4mvPUVCvpiyLvqnW--1" value="ModuleNode" style="rounded=1;whiteSpace=wrap;html=1;fillColor=#fff2cc;strokeColor=#d6b656;" vertex="1" parent="1">
          <mxGeometry x="310" y="60" width="120" height="60" as="geometry" />
        </mxCell>
        <mxCell id="GNe4mvPUVCvpiyLvqnW--11" style="edgeStyle=orthogonalEdgeStyle;rounded=0;orthogonalLoop=1;jettySize=auto;html=1;exitX=0.75;exitY=1;exitDx=0;exitDy=0;entryX=0.25;entryY=0;entryDx=0;entryDy=0;" edge="1" parent="1" source="GNe4mvPUVCvpiyLvqnW--3" target="GNe4mvPUVCvpiyLvqnW--8">
          <mxGeometry relative="1" as="geometry" />
        </mxCell>
        <mxCell id="GNe4mvPUVCvpiyLvqnW--19" style="edgeStyle=orthogonalEdgeStyle;rounded=0;orthogonalLoop=1;jettySize=auto;html=1;exitX=0.25;exitY=1;exitDx=0;exitDy=0;entryX=0.75;entryY=0;entryDx=0;entryDy=0;" edge="1" parent="1" source="GNe4mvPUVCvpiyLvqnW--3" target="GNe4mvPUVCvpiyLvqnW--18">
          <mxGeometry relative="1" as="geometry" />
        </mxCell>
        <mxCell id="GNe4mvPUVCvpiyLvqnW--38" style="edgeStyle=orthogonalEdgeStyle;rounded=0;orthogonalLoop=1;jettySize=auto;html=1;exitX=0.5;exitY=1;exitDx=0;exitDy=0;entryX=0.5;entryY=0;entryDx=0;entryDy=0;" edge="1" parent="1" source="GNe4mvPUVCvpiyLvqnW--3" target="GNe4mvPUVCvpiyLvqnW--36">
          <mxGeometry relative="1" as="geometry" />
        </mxCell>
        <mxCell id="GNe4mvPUVCvpiyLvqnW--3" value="BlockNode" style="rounded=1;whiteSpace=wrap;html=1;fillColor=#fff2cc;strokeColor=#d6b656;" vertex="1" parent="1">
          <mxGeometry x="60" y="170" width="120" height="60" as="geometry" />
        </mxCell>
        <mxCell id="GNe4mvPUVCvpiyLvqnW--12" style="edgeStyle=orthogonalEdgeStyle;rounded=0;orthogonalLoop=1;jettySize=auto;html=1;exitX=0.25;exitY=1;exitDx=0;exitDy=0;entryX=0.75;entryY=0;entryDx=0;entryDy=0;" edge="1" parent="1" source="GNe4mvPUVCvpiyLvqnW--4" target="GNe4mvPUVCvpiyLvqnW--8">
          <mxGeometry relative="1" as="geometry" />
        </mxCell>
        <mxCell id="GNe4mvPUVCvpiyLvqnW--17" style="edgeStyle=orthogonalEdgeStyle;rounded=0;orthogonalLoop=1;jettySize=auto;html=1;exitX=0.75;exitY=1;exitDx=0;exitDy=0;entryX=0.25;entryY=0;entryDx=0;entryDy=0;" edge="1" parent="1" source="GNe4mvPUVCvpiyLvqnW--4" target="GNe4mvPUVCvpiyLvqnW--6">
          <mxGeometry relative="1" as="geometry" />
        </mxCell>
        <mxCell id="GNe4mvPUVCvpiyLvqnW--40" style="edgeStyle=orthogonalEdgeStyle;rounded=0;orthogonalLoop=1;jettySize=auto;html=1;exitX=0.5;exitY=1;exitDx=0;exitDy=0;entryX=0.75;entryY=0;entryDx=0;entryDy=0;" edge="1" parent="1" source="GNe4mvPUVCvpiyLvqnW--4" target="GNe4mvPUVCvpiyLvqnW--20">
          <mxGeometry relative="1" as="geometry">
            <Array as="points">
              <mxPoint x="290" y="370" />
              <mxPoint x="260" y="370" />
            </Array>
          </mxGeometry>
        </mxCell>
        <mxCell id="GNe4mvPUVCvpiyLvqnW--4" value="FunDefNode" style="rounded=1;whiteSpace=wrap;html=1;fillColor=#fff2cc;strokeColor=#d6b656;" vertex="1" parent="1">
          <mxGeometry x="230" y="170" width="120" height="60" as="geometry" />
        </mxCell>
        <mxCell id="GNe4mvPUVCvpiyLvqnW--52" style="edgeStyle=orthogonalEdgeStyle;rounded=0;orthogonalLoop=1;jettySize=auto;html=1;exitX=0.5;exitY=0;exitDx=0;exitDy=0;" edge="1" parent="1" source="GNe4mvPUVCvpiyLvqnW--5" target="GNe4mvPUVCvpiyLvqnW--47">
          <mxGeometry relative="1" as="geometry">
            <Array as="points">
              <mxPoint x="450" y="50" />
              <mxPoint x="-150" y="50" />
            </Array>
          </mxGeometry>
        </mxCell>
        <mxCell id="GNe4mvPUVCvpiyLvqnW--5" value="ConstDefNode" style="rounded=1;whiteSpace=wrap;html=1;fillColor=#fff2cc;strokeColor=#d6b656;" vertex="1" parent="1">
          <mxGeometry x="390" y="170" width="120" height="60" as="geometry" />
        </mxCell>
        <mxCell id="GNe4mvPUVCvpiyLvqnW--6" value="ParamDefNode" style="rounded=1;whiteSpace=wrap;html=1;fillColor=#fff2cc;strokeColor=#d6b656;" vertex="1" parent="1">
          <mxGeometry x="310" y="270" width="120" height="60" as="geometry" />
        </mxCell>
        <mxCell id="GNe4mvPUVCvpiyLvqnW--23" style="edgeStyle=orthogonalEdgeStyle;rounded=0;orthogonalLoop=1;jettySize=auto;html=1;exitX=0.5;exitY=1;exitDx=0;exitDy=0;entryX=0.25;entryY=0;entryDx=0;entryDy=0;" edge="1" parent="1" source="GNe4mvPUVCvpiyLvqnW--8" target="GNe4mvPUVCvpiyLvqnW--20">
          <mxGeometry relative="1" as="geometry" />
        </mxCell>
        <mxCell id="GNe4mvPUVCvpiyLvqnW--8" value="BlockBodyNode" style="rounded=1;whiteSpace=wrap;html=1;fillColor=#fff2cc;strokeColor=#d6b656;" vertex="1" parent="1">
          <mxGeometry x="140" y="270" width="120" height="60" as="geometry" />
        </mxCell>
        <mxCell id="GNe4mvPUVCvpiyLvqnW--48" style="edgeStyle=orthogonalEdgeStyle;rounded=0;orthogonalLoop=1;jettySize=auto;html=1;exitX=0.5;exitY=1;exitDx=0;exitDy=0;entryX=0.75;entryY=0;entryDx=0;entryDy=0;" edge="1" parent="1" source="GNe4mvPUVCvpiyLvqnW--18" target="GNe4mvPUVCvpiyLvqnW--47">
          <mxGeometry relative="1" as="geometry" />
        </mxCell>
        <mxCell id="GNe4mvPUVCvpiyLvqnW--18" value="MetadataNode" style="rounded=1;whiteSpace=wrap;html=1;fillColor=#fff2cc;strokeColor=#d6b656;" vertex="1" parent="1">
          <mxGeometry x="-30" y="270" width="120" height="60" as="geometry" />
        </mxCell>
        <mxCell id="GNe4mvPUVCvpiyLvqnW--26" style="edgeStyle=orthogonalEdgeStyle;rounded=0;orthogonalLoop=1;jettySize=auto;html=1;exitX=1;exitY=0.5;exitDx=0;exitDy=0;entryX=0;entryY=0.5;entryDx=0;entryDy=0;" edge="1" parent="1" source="GNe4mvPUVCvpiyLvqnW--20" target="GNe4mvPUVCvpiyLvqnW--24">
          <mxGeometry relative="1" as="geometry" />
        </mxCell>
        <mxCell id="GNe4mvPUVCvpiyLvqnW--20" value="TypedInstrSetNode" style="rounded=1;whiteSpace=wrap;html=1;fillColor=#dae8fc;strokeColor=#6c8ebf;" vertex="1" parent="1">
          <mxGeometry x="170" y="420" width="120" height="60" as="geometry" />
        </mxCell>
        <mxCell id="GNe4mvPUVCvpiyLvqnW--30" style="edgeStyle=orthogonalEdgeStyle;rounded=0;orthogonalLoop=1;jettySize=auto;html=1;exitX=0.5;exitY=1;exitDx=0;exitDy=0;entryX=0.5;entryY=0;entryDx=0;entryDy=0;" edge="1" parent="1" source="GNe4mvPUVCvpiyLvqnW--24" target="GNe4mvPUVCvpiyLvqnW--27">
          <mxGeometry relative="1" as="geometry" />
        </mxCell>
        <mxCell id="GNe4mvPUVCvpiyLvqnW--24" value="InstrSetNode" style="rounded=1;whiteSpace=wrap;html=1;fillColor=#dae8fc;strokeColor=#6c8ebf;" vertex="1" parent="1">
          <mxGeometry x="380" y="420" width="120" height="60" as="geometry" />
        </mxCell>
        <mxCell id="GNe4mvPUVCvpiyLvqnW--31" style="edgeStyle=orthogonalEdgeStyle;rounded=0;orthogonalLoop=1;jettySize=auto;html=1;exitX=1;exitY=0.5;exitDx=0;exitDy=0;entryX=0;entryY=0.5;entryDx=0;entryDy=0;" edge="1" parent="1" source="GNe4mvPUVCvpiyLvqnW--27" target="GNe4mvPUVCvpiyLvqnW--29">
          <mxGeometry relative="1" as="geometry" />
        </mxCell>
        <mxCell id="GNe4mvPUVCvpiyLvqnW--32" style="edgeStyle=orthogonalEdgeStyle;rounded=0;orthogonalLoop=1;jettySize=auto;html=1;exitX=1;exitY=0.25;exitDx=0;exitDy=0;entryX=0;entryY=0.5;entryDx=0;entryDy=0;" edge="1" parent="1" source="GNe4mvPUVCvpiyLvqnW--27" target="GNe4mvPUVCvpiyLvqnW--28">
          <mxGeometry relative="1" as="geometry" />
        </mxCell>
        <mxCell id="GNe4mvPUVCvpiyLvqnW--37" style="edgeStyle=orthogonalEdgeStyle;rounded=0;orthogonalLoop=1;jettySize=auto;html=1;exitX=0;exitY=0.5;exitDx=0;exitDy=0;entryX=0.75;entryY=0;entryDx=0;entryDy=0;" edge="1" parent="1" source="GNe4mvPUVCvpiyLvqnW--27" target="GNe4mvPUVCvpiyLvqnW--36">
          <mxGeometry relative="1" as="geometry" />
        </mxCell>
        <mxCell id="GNe4mvPUVCvpiyLvqnW--27" value="CompositeInstrNode" style="rounded=1;whiteSpace=wrap;html=1;fillColor=#dae8fc;strokeColor=#6c8ebf;" vertex="1" parent="1">
          <mxGeometry x="380" y="510" width="120" height="60" as="geometry" />
        </mxCell>
        <mxCell id="GNe4mvPUVCvpiyLvqnW--34" style="edgeStyle=orthogonalEdgeStyle;rounded=0;orthogonalLoop=1;jettySize=auto;html=1;exitX=0.5;exitY=0;exitDx=0;exitDy=0;entryX=0.75;entryY=0;entryDx=0;entryDy=0;" edge="1" parent="1" source="GNe4mvPUVCvpiyLvqnW--28" target="GNe4mvPUVCvpiyLvqnW--24">
          <mxGeometry relative="1" as="geometry" />
        </mxCell>
        <mxCell id="GNe4mvPUVCvpiyLvqnW--28" value="BranchNode" style="rounded=1;whiteSpace=wrap;html=1;fillColor=#dae8fc;strokeColor=#6c8ebf;" vertex="1" parent="1">
          <mxGeometry x="560" y="420" width="120" height="60" as="geometry" />
        </mxCell>
        <mxCell id="GNe4mvPUVCvpiyLvqnW--33" style="edgeStyle=orthogonalEdgeStyle;rounded=0;orthogonalLoop=1;jettySize=auto;html=1;exitX=1;exitY=0.5;exitDx=0;exitDy=0;entryX=0.5;entryY=0;entryDx=0;entryDy=0;" edge="1" parent="1" source="GNe4mvPUVCvpiyLvqnW--29" target="GNe4mvPUVCvpiyLvqnW--24">
          <mxGeometry relative="1" as="geometry">
            <Array as="points">
              <mxPoint x="700" y="540" />
              <mxPoint x="700" y="380" />
              <mxPoint x="440" y="380" />
            </Array>
          </mxGeometry>
        </mxCell>
        <mxCell id="GNe4mvPUVCvpiyLvqnW--51" style="edgeStyle=orthogonalEdgeStyle;rounded=0;orthogonalLoop=1;jettySize=auto;html=1;exitX=1;exitY=0.75;exitDx=0;exitDy=0;entryX=0.25;entryY=1;entryDx=0;entryDy=0;" edge="1" parent="1" source="GNe4mvPUVCvpiyLvqnW--29" target="GNe4mvPUVCvpiyLvqnW--47">
          <mxGeometry relative="1" as="geometry">
            <Array as="points">
              <mxPoint x="700" y="555" />
              <mxPoint x="700" y="740" />
              <mxPoint x="-180" y="740" />
            </Array>
          </mxGeometry>
        </mxCell>
        <mxCell id="GNe4mvPUVCvpiyLvqnW--29" value="ForLoopNode" style="rounded=1;whiteSpace=wrap;html=1;fillColor=#dae8fc;strokeColor=#6c8ebf;" vertex="1" parent="1">
          <mxGeometry x="560" y="510" width="120" height="60" as="geometry" />
        </mxCell>
        <mxCell id="GNe4mvPUVCvpiyLvqnW--44" style="edgeStyle=orthogonalEdgeStyle;rounded=0;orthogonalLoop=1;jettySize=auto;html=1;exitX=1;exitY=0.5;exitDx=0;exitDy=0;" edge="1" parent="1" source="GNe4mvPUVCvpiyLvqnW--36" target="GNe4mvPUVCvpiyLvqnW--41">
          <mxGeometry relative="1" as="geometry" />
        </mxCell>
        <mxCell id="GNe4mvPUVCvpiyLvqnW--36" value="InstructionNode" style="rounded=1;whiteSpace=wrap;html=1;fillColor=#d5e8d4;strokeColor=#82b366;" vertex="1" parent="1">
          <mxGeometry x="60" y="640" width="120" height="60" as="geometry" />
        </mxCell>
        <mxCell id="GNe4mvPUVCvpiyLvqnW--45" style="edgeStyle=orthogonalEdgeStyle;rounded=0;orthogonalLoop=1;jettySize=auto;html=1;exitX=1;exitY=0.5;exitDx=0;exitDy=0;entryX=0;entryY=0.5;entryDx=0;entryDy=0;" edge="1" parent="1" source="GNe4mvPUVCvpiyLvqnW--41" target="GNe4mvPUVCvpiyLvqnW--42">
          <mxGeometry relative="1" as="geometry" />
        </mxCell>
        <mxCell id="GNe4mvPUVCvpiyLvqnW--41" value="ParamAppsNode" style="rounded=1;whiteSpace=wrap;html=1;fillColor=#d5e8d4;strokeColor=#82b366;" vertex="1" parent="1">
          <mxGeometry x="220" y="640" width="120" height="60" as="geometry" />
        </mxCell>
        <mxCell id="GNe4mvPUVCvpiyLvqnW--46" style="edgeStyle=orthogonalEdgeStyle;rounded=0;orthogonalLoop=1;jettySize=auto;html=1;exitX=1;exitY=0.5;exitDx=0;exitDy=0;" edge="1" parent="1" source="GNe4mvPUVCvpiyLvqnW--42" target="GNe4mvPUVCvpiyLvqnW--43">
          <mxGeometry relative="1" as="geometry" />
        </mxCell>
        <mxCell id="GNe4mvPUVCvpiyLvqnW--49" style="edgeStyle=orthogonalEdgeStyle;rounded=0;orthogonalLoop=1;jettySize=auto;html=1;exitX=0.5;exitY=1;exitDx=0;exitDy=0;entryX=0.75;entryY=1;entryDx=0;entryDy=0;" edge="1" parent="1" source="GNe4mvPUVCvpiyLvqnW--42" target="GNe4mvPUVCvpiyLvqnW--47">
          <mxGeometry relative="1" as="geometry" />
        </mxCell>
        <mxCell id="GNe4mvPUVCvpiyLvqnW--42" value="PositionalParamNode" style="rounded=1;whiteSpace=wrap;html=1;fillColor=#d5e8d4;strokeColor=#82b366;" vertex="1" parent="1">
          <mxGeometry x="380" y="640" width="120" height="60" as="geometry" />
        </mxCell>
        <mxCell id="GNe4mvPUVCvpiyLvqnW--50" style="edgeStyle=orthogonalEdgeStyle;rounded=0;orthogonalLoop=1;jettySize=auto;html=1;exitX=0.5;exitY=1;exitDx=0;exitDy=0;entryX=0.5;entryY=1;entryDx=0;entryDy=0;" edge="1" parent="1" source="GNe4mvPUVCvpiyLvqnW--43" target="GNe4mvPUVCvpiyLvqnW--47">
          <mxGeometry relative="1" as="geometry">
            <Array as="points">
              <mxPoint x="600" y="730" />
              <mxPoint x="-150" y="730" />
            </Array>
          </mxGeometry>
        </mxCell>
        <mxCell id="GNe4mvPUVCvpiyLvqnW--43" value="NamedParamNode" style="rounded=1;whiteSpace=wrap;html=1;fillColor=#d5e8d4;strokeColor=#82b366;" vertex="1" parent="1">
          <mxGeometry x="540" y="640" width="120" height="60" as="geometry" />
        </mxCell>
        <mxCell id="GNe4mvPUVCvpiyLvqnW--56" style="edgeStyle=orthogonalEdgeStyle;rounded=0;orthogonalLoop=1;jettySize=auto;html=1;exitX=0;exitY=0.5;exitDx=0;exitDy=0;entryX=1;entryY=0.5;entryDx=0;entryDy=0;" edge="1" parent="1" source="GNe4mvPUVCvpiyLvqnW--47" target="GNe4mvPUVCvpiyLvqnW--54">
          <mxGeometry relative="1" as="geometry" />
        </mxCell>
        <mxCell id="GNe4mvPUVCvpiyLvqnW--57" style="edgeStyle=orthogonalEdgeStyle;rounded=0;orthogonalLoop=1;jettySize=auto;html=1;exitX=0;exitY=0.5;exitDx=0;exitDy=0;entryX=1;entryY=0.5;entryDx=0;entryDy=0;" edge="1" parent="1" source="GNe4mvPUVCvpiyLvqnW--47" target="GNe4mvPUVCvpiyLvqnW--55">
          <mxGeometry relative="1" as="geometry" />
        </mxCell>
        <mxCell id="GNe4mvPUVCvpiyLvqnW--47" value="ExpNode" style="rounded=1;whiteSpace=wrap;html=1;fillColor=#e1d5e7;strokeColor=#9673a6;" vertex="1" parent="1">
          <mxGeometry x="-210" y="380" width="120" height="60" as="geometry" />
        </mxCell>
        <mxCell id="GNe4mvPUVCvpiyLvqnW--59" style="edgeStyle=orthogonalEdgeStyle;rounded=0;orthogonalLoop=1;jettySize=auto;html=1;exitX=0;exitY=0.5;exitDx=0;exitDy=0;entryX=1;entryY=0.5;entryDx=0;entryDy=0;" edge="1" parent="1" source="GNe4mvPUVCvpiyLvqnW--54" target="GNe4mvPUVCvpiyLvqnW--58">
          <mxGeometry relative="1" as="geometry" />
        </mxCell>
        <mxCell id="GNe4mvPUVCvpiyLvqnW--54" value="OperationNode" style="rounded=1;whiteSpace=wrap;html=1;fillColor=#e1d5e7;strokeColor=#9673a6;" vertex="1" parent="1">
          <mxGeometry x="-390" y="320" width="120" height="60" as="geometry" />
        </mxCell>
        <mxCell id="GNe4mvPUVCvpiyLvqnW--61" style="edgeStyle=orthogonalEdgeStyle;rounded=0;orthogonalLoop=1;jettySize=auto;html=1;exitX=0;exitY=0.25;exitDx=0;exitDy=0;entryX=1;entryY=0.5;entryDx=0;entryDy=0;" edge="1" parent="1" source="GNe4mvPUVCvpiyLvqnW--55" target="GNe4mvPUVCvpiyLvqnW--60">
          <mxGeometry relative="1" as="geometry" />
        </mxCell>
        <mxCell id="GNe4mvPUVCvpiyLvqnW--63" style="edgeStyle=orthogonalEdgeStyle;rounded=0;orthogonalLoop=1;jettySize=auto;html=1;exitX=0;exitY=0.5;exitDx=0;exitDy=0;entryX=1;entryY=0.5;entryDx=0;entryDy=0;" edge="1" parent="1" source="GNe4mvPUVCvpiyLvqnW--55" target="GNe4mvPUVCvpiyLvqnW--62">
          <mxGeometry relative="1" as="geometry" />
        </mxCell>
        <mxCell id="GNe4mvPUVCvpiyLvqnW--70" style="edgeStyle=orthogonalEdgeStyle;rounded=0;orthogonalLoop=1;jettySize=auto;html=1;exitX=0.25;exitY=1;exitDx=0;exitDy=0;entryX=1;entryY=0.5;entryDx=0;entryDy=0;" edge="1" parent="1" source="GNe4mvPUVCvpiyLvqnW--55" target="GNe4mvPUVCvpiyLvqnW--65">
          <mxGeometry relative="1" as="geometry" />
        </mxCell>
        <mxCell id="GNe4mvPUVCvpiyLvqnW--71" style="edgeStyle=orthogonalEdgeStyle;rounded=0;orthogonalLoop=1;jettySize=auto;html=1;exitX=0.5;exitY=1;exitDx=0;exitDy=0;entryX=1;entryY=0.5;entryDx=0;entryDy=0;" edge="1" parent="1" source="GNe4mvPUVCvpiyLvqnW--55" target="GNe4mvPUVCvpiyLvqnW--66">
          <mxGeometry relative="1" as="geometry" />
        </mxCell>
        <mxCell id="GNe4mvPUVCvpiyLvqnW--72" style="edgeStyle=orthogonalEdgeStyle;rounded=0;orthogonalLoop=1;jettySize=auto;html=1;exitX=0.75;exitY=1;exitDx=0;exitDy=0;entryX=1;entryY=0.5;entryDx=0;entryDy=0;" edge="1" parent="1" source="GNe4mvPUVCvpiyLvqnW--55" target="GNe4mvPUVCvpiyLvqnW--67">
          <mxGeometry relative="1" as="geometry" />
        </mxCell>
        <mxCell id="GNe4mvPUVCvpiyLvqnW--75" style="edgeStyle=orthogonalEdgeStyle;rounded=0;orthogonalLoop=1;jettySize=auto;html=1;exitX=0;exitY=0.75;exitDx=0;exitDy=0;entryX=1;entryY=0.5;entryDx=0;entryDy=0;" edge="1" parent="1" source="GNe4mvPUVCvpiyLvqnW--55" target="GNe4mvPUVCvpiyLvqnW--64">
          <mxGeometry relative="1" as="geometry">
            <Array as="points">
              <mxPoint x="-400" y="475" />
              <mxPoint x="-400" y="560" />
            </Array>
          </mxGeometry>
        </mxCell>
        <mxCell id="GNe4mvPUVCvpiyLvqnW--55" value="ValueNode" style="rounded=1;whiteSpace=wrap;html=1;fillColor=#e1d5e7;strokeColor=#9673a6;" vertex="1" parent="1">
          <mxGeometry x="-390" y="430" width="120" height="60" as="geometry" />
        </mxCell>
        <mxCell id="GNe4mvPUVCvpiyLvqnW--58" value="PlusNode" style="rounded=1;whiteSpace=wrap;html=1;fillColor=#e1d5e7;strokeColor=#9673a6;" vertex="1" parent="1">
          <mxGeometry x="-550" y="320" width="120" height="60" as="geometry" />
        </mxCell>
        <mxCell id="GNe4mvPUVCvpiyLvqnW--60" value="IntNode" style="rounded=1;whiteSpace=wrap;html=1;fillColor=#e1d5e7;strokeColor=#9673a6;" vertex="1" parent="1">
          <mxGeometry x="-550" y="390" width="120" height="60" as="geometry" />
        </mxCell>
        <mxCell id="GNe4mvPUVCvpiyLvqnW--62" value="StringNode" style="rounded=1;whiteSpace=wrap;html=1;fillColor=#e1d5e7;strokeColor=#9673a6;" vertex="1" parent="1">
          <mxGeometry x="-550" y="460" width="120" height="60" as="geometry" />
        </mxCell>
        <mxCell id="GNe4mvPUVCvpiyLvqnW--64" value="BoolNode" style="rounded=1;whiteSpace=wrap;html=1;fillColor=#e1d5e7;strokeColor=#9673a6;" vertex="1" parent="1">
          <mxGeometry x="-550" y="530" width="120" height="60" as="geometry" />
        </mxCell>
        <mxCell id="GNe4mvPUVCvpiyLvqnW--65" value="VariableNode" style="rounded=1;whiteSpace=wrap;html=1;fillColor=#e1d5e7;strokeColor=#9673a6;" vertex="1" parent="1">
          <mxGeometry x="-550" y="600" width="120" height="60" as="geometry" />
        </mxCell>
        <mxCell id="GNe4mvPUVCvpiyLvqnW--66" value="PositionNode" style="rounded=1;whiteSpace=wrap;html=1;fillColor=#e1d5e7;strokeColor=#9673a6;" vertex="1" parent="1">
          <mxGeometry x="-550" y="670" width="120" height="60" as="geometry" />
        </mxCell>
        <mxCell id="GNe4mvPUVCvpiyLvqnW--74" style="edgeStyle=orthogonalEdgeStyle;rounded=0;orthogonalLoop=1;jettySize=auto;html=1;exitX=0.5;exitY=1;exitDx=0;exitDy=0;entryX=0;entryY=1;entryDx=0;entryDy=0;" edge="1" parent="1" source="GNe4mvPUVCvpiyLvqnW--67" target="GNe4mvPUVCvpiyLvqnW--47">
          <mxGeometry relative="1" as="geometry" />
        </mxCell>
        <mxCell id="GNe4mvPUVCvpiyLvqnW--67" value="ListNode" style="rounded=1;whiteSpace=wrap;html=1;fillColor=#e1d5e7;strokeColor=#9673a6;" vertex="1" parent="1">
          <mxGeometry x="-550" y="740" width="120" height="60" as="geometry" />
        </mxCell>
      </root>
    </mxGraphModel>
  </diagram>
</mxfile>
